<svg width="38" height="16" viewBox="0 0 38 16" fill="none" xmlns="http://www.w3.org/2000/svg">
<path fill-rule="evenodd" clip-rule="evenodd" d="M38 2C38 0.9 37.1 0 36 0H20C18.9 0 18 0.9 18 2V14C18 15.1 18.9 16 20 16H36C37.1 16 38 15.1 38 14V2ZM36 2L28 6.99L20 2H36ZM28 9L20 4V14H36V4L28 9Z" fill="green" fill-opacity="0.8"/>
<path fill-rule="evenodd" clip-rule="evenodd" d="M16.375 2V4H0.625V2H16.375ZM16.375 14H11.125V12H16.375V14ZM5.875 9H16.375V7H5.875V9Z" fill="green" fill-opacity="0.8"/>
</svg>
