<?xml version="1.0" standalone="no"?>
<svg
  width="600"
  height="600"
  viewBox="0 0 600 600"
  xmlns="http://www.w3.org/2000/svg"
>
  <g transform="translate(300,300)">
    <path d="M144.7,-220.8C184.1,-199.8,210.3,-153.9,231.7,-106.1C253,-58.3,269.5,-8.6,265.9,40.4C262.2,89.4,238.4,137.7,204.5,177.7C170.6,217.7,126.6,249.4,82.4,246.9C38.3,244.4,-5.9,207.6,-53.8,190.3C-101.7,173,-153.3,175.2,-182.2,152.1C-211.1,129,-217.4,80.6,-209,39.2C-200.7,-2.1,-177.7,-36.4,-156.1,-66.1C-134.4,-95.9,-114.3,-121.1,-88.5,-148.4C-62.7,-175.6,-31.4,-204.8,10.6,-221.3C52.6,-237.9,105.2,-241.8,144.7,-220.8Z"
           fill="#0693e3"/>
  </g>
</svg>
  