<svg width="24" height="24" viewBox="0 0 24 24" fill="none" xmlns="http://www.w3.org/2000/svg">
<path fill-rule="evenodd" clip-rule="evenodd" d="M9 3H15L16.83 5H20C21.1 5 22 5.89999 22 7V19C22 20.1 21.1 21 20 21H4C2.90002 21 2 20.1 2 19V7C2 5.89999 2.90002 5 4 5H7.16998L9 3ZM15.95 7L14.12 5H9.88L8.04999 7H4V19H20V7H15.95ZM12 10C13.65 10 15 11.35 15 13C15 14.65 13.65 16 12 16C10.35 16 9 14.65 9 13C9 11.35 10.35 10 12 10ZM7 13C7 10.24 9.23999 8 12 8C14.76 8 17 10.24 17 13C17 15.76 14.76 18 12 18C9.23999 18 7 15.76 7 13Z" fill="black" fill-opacity="0.9"/>
</svg>
