<svg width="26" height="26" viewBox="0 0 26 26" fill="none" xmlns="http://www.w3.org/2000/svg">
    <path d="M16.9814 6.98764L17.017 18.4876C17.0238 20.6976 15.2394 22.4931 13.0294 22.5C10.8194 22.5068 9.02388 20.7223 9.01704 18.5124L8.97835 6.01241C8.97408 4.63242 10.0906 3.50896 11.4706 3.50468C12.8506 3.50041 13.9741 4.61694 13.9783 5.99693L14.0108 16.4969C14.0125 17.0469 13.5639 17.4983 13.0139 17.5C12.4639 17.5017 12.0125 17.0531 12.0108 16.5031L11.9814 7.00312L10.4814 7.00776L10.5108 16.5077C10.5151 17.8877 11.6386 19.0042 13.0186 19C14.3986 18.9957 15.5151 17.8722 15.5108 16.4922L15.4783 5.99229C15.4715 3.7823 13.6759 1.99785 11.466 2.00469C9.25597 2.01153 7.47151 3.80707 7.47836 6.01705L7.51705 18.517C7.52646 21.557 9.99406 24.0094 13.034 23.9999C16.074 23.9905 18.5264 21.5229 18.517 18.4829L18.4814 6.983L16.9814 6.98764Z" fill="black" fill-opacity="0.6"/>
</svg>
