<svg width="24" height="24" viewBox="0 0 24 24" fill="none" xmlns="http://www.w3.org/2000/svg">
    <path fill-rule="evenodd" clip-rule="evenodd" d="M20 15.5C18.75 15.5 17.55 15.3 16.4301 14.93C16.33 14.9 16.22 14.88 16.12 14.88C15.86 14.88 15.61 14.98 15.41 15.17L13.21 17.37C10.38 15.93 8.06006 13.62 6.62 10.79L8.81995 8.57999C9.09998 8.31 9.18005 7.92001 9.06995 7.57001C8.69995 6.45001 8.5 5.25 8.5 4C8.5 3.45001 8.05005 3 7.5 3H4C3.44995 3 3 3.45001 3 4C3 13.39 10.61 21 20 21C20.55 21 21 20.55 21 20V16.5C21 15.95 20.55 15.5 20 15.5ZM13 9H11V11H13V9ZM17 9H15V11H17V9ZM6.53003 5H5.03003C5.12 6.32001 5.38 7.59 5.79004 8.79999L6.98999 7.59C6.75 6.75 6.59998 5.88 6.53003 5ZM19 18.97C17.6799 18.88 16.3999 18.62 15.2 18.21L16.3999 17.01C17.25 17.25 18.12 17.4 19 17.46V18.97ZM21 11V9H19V11H21Z" fill="#f7f7f7" fill-opacity="0.8"/>
</svg>
