<svg width="114" height="116" viewBox="0 0 114 116" fill="none" xmlns="http://www.w3.org/2000/svg">
    <path fill-rule="evenodd" clip-rule="evenodd" d="M111.762 55.8831C111.762 25.0197 86.7433 0 55.8811 0C25.0188 0 0 25.0197 0 55.8831C0 86.7465 25.0188 111.766 55.8811 111.766C68.6447 111.766 80.4089 107.487 89.8173 100.285L105.533 116L114 107.532L98.4992 92.0302C106.772 82.2857 111.762 69.6672 111.762 55.8831ZM11.9745 55.8831C11.9745 31.6333 31.6321 11.975 55.8811 11.975C80.13 11.975 99.7876 31.6333 99.7876 55.8831C99.7876 80.1329 80.13 99.7913 55.8811 99.7913C31.6321 99.7913 11.9745 80.1329 11.9745 55.8831Z" fill="#ED4A5F" />
    <path fill-rule="evenodd" clip-rule="evenodd" d="M50.4581 78.0884C50.5492 78.3674 50.6402 78.5534 50.7312 78.8324C51.9147 83.1107 49.0925 88.5981 44.1765 87.9471C41.4453 87.587 39.2257 85.5721 37.4352 82.6608L37.2576 82.3667C36.2561 80.7856 37.1665 78.7394 38.8963 78.2744L47.3628 76.3213C48.6374 76.0422 50.0029 76.7863 50.4581 78.0884ZM50.4581 53.9997C51.7327 59.4871 49.1836 64.3234 48.6374 69.3458C48.5528 69.9503 48.1543 70.3945 47.6604 70.5293L34.7085 73.5311C34.023 73.7061 33.3376 73.3045 33.1075 72.6363L33.0698 72.508C32.2505 69.7178 31.7042 67.0206 31.4311 65.2535L31.3575 64.7558L31.2844 64.2103C30.4011 57.2423 31.1984 48.139 39.1694 46.2802C44.9048 44.9781 49.0925 48.3263 50.4581 53.9997ZM59.5419 57.0884C59.9773 55.8429 61.2456 55.108 62.4705 55.2906L62.6372 55.3213L71.1037 57.2744C72.7794 57.7249 73.6862 59.6592 72.8307 61.2171L72.5648 61.6608C70.7743 64.5721 68.5547 66.587 65.8235 66.9471C60.9075 67.5981 58.0853 62.1107 59.2688 57.8324C59.3598 57.5534 59.4508 57.3674 59.5419 57.0884ZM59.5419 32.9997C60.9075 27.3263 65.0952 23.9781 70.8306 25.2802C78.7138 27.1185 79.5805 36.0426 78.7442 42.9792L78.6425 43.7558L78.5689 44.2535L78.4612 44.9144C78.1833 46.5404 77.7202 48.7303 77.072 51.0167L76.8925 51.6363C76.6768 52.2627 76.0609 52.6549 75.4199 52.5572L75.2915 52.5311L62.3396 49.5293C61.8457 49.3945 61.4472 48.9503 61.3626 48.3458C60.8164 43.3234 58.2673 38.4871 59.5419 32.9997Z" fill="#ffffff" />
</svg>
