    <svg width="301" height="740" viewBox="0 0 1301 740" fill="none" xmlns="http://www.w3.org/2000/svg">
<rect width="1301" height="740" fill="white"/>
<path d="M10 39H1276V713H10V39Z" fill="black"/>
<path d="M371 143C371 146.932 368.54 151.018 363.296 155.036C358.082 159.032 350.41 162.716 340.751 165.846C321.455 172.099 294.673 176 265 176C235.327 176 208.545 172.099 189.249 165.846C179.59 162.716 171.918 159.032 166.704 155.036C161.46 151.018 159 146.932 159 143C159 139.068 161.46 134.982 166.704 130.964C171.918 126.968 179.59 123.284 189.249 120.154C208.545 113.901 235.327 110 265 110C294.673 110 321.455 113.901 340.751 120.154C350.41 123.284 358.082 126.968 363.296 130.964C368.54 134.982 371 139.068 371 143Z" stroke="white" stroke-opacity="0.98" stroke-width="4"/>
<path d="M405.51 159.411C406.289 159.129 406.692 158.269 406.411 157.49L401.819 144.795C401.537 144.016 400.677 143.613 399.898 143.894C399.119 144.176 398.716 145.036 398.998 145.815L403.079 157.1L391.795 161.181C391.016 161.463 390.613 162.323 390.894 163.102C391.176 163.881 392.036 164.284 392.815 164.002L405.51 159.411ZM372.363 144.358L404.363 159.358L405.637 156.642L373.637 141.642L372.363 144.358Z" fill="white"/>
<path d="M249.392 126.608L249.152 134.528C249.152 138.88 249.28 142.784 249.536 146.24C249.792 149.664 250.368 153.392 251.264 157.424C250.56 158 249.44 158.288 247.904 158.288C244.928 158.288 243.44 156.992 243.44 154.4C243.44 152.256 243.536 148.976 243.728 144.56C243.952 140.144 244.064 136.688 244.064 134.192C242.336 136.688 240.512 139.776 238.592 143.456C236.704 147.104 235.76 149.344 235.76 150.176C235.76 151.008 235.84 151.648 236 152.096C235.296 152.544 234.352 152.768 233.168 152.768C232.016 152.768 231.04 152.448 230.24 151.808C229.472 151.168 228.816 150.288 228.272 149.168C227.76 148.048 226.832 145.856 225.488 142.592C224.176 139.296 222.976 136.464 221.888 134.096C221.056 139.248 220.64 143.808 220.64 147.776C220.64 151.744 220.768 154.96 221.024 157.424C220 157.808 218.976 158 217.952 158C215.904 158 214.88 156.976 214.88 154.928C214.88 153.36 215.232 150.24 215.936 145.568C216.672 140.864 217.04 136.896 217.04 133.664C217.04 130.432 216.864 127.408 216.512 124.592C218.24 124.144 219.584 123.92 220.544 123.92C222.304 123.92 223.488 124.544 224.096 125.792C225.056 127.808 226.464 131.024 228.32 135.44C230.208 139.824 231.744 143.2 232.928 145.568C233.248 144.896 233.984 143.456 235.136 141.248C236.32 139.008 237.296 137.104 238.064 135.536C238.864 133.936 239.664 132.048 240.464 129.872C241.296 127.664 241.824 125.744 242.048 124.112C243.2 123.792 244.32 123.632 245.408 123.632C246.528 123.632 247.472 123.872 248.24 124.352C249.008 124.832 249.392 125.584 249.392 126.608ZM272.399 157.616C271.055 158.064 269.839 158.288 268.751 158.288C267.119 158.288 265.839 157.696 264.911 156.512C264.015 155.296 263.279 153.584 262.703 151.376C262.575 150.896 262.127 149.136 261.359 146.096C259.855 140.144 258.639 135.84 257.711 133.184C256.783 130.496 255.423 128.464 253.631 127.088C254.015 126.128 254.639 125.36 255.503 124.784C256.399 124.208 257.439 123.92 258.623 123.92C259.807 123.92 260.783 124.384 261.551 125.312C262.319 126.208 262.927 127.312 263.375 128.624C263.855 129.936 264.271 131.2 264.623 132.416C264.975 133.632 265.343 135.136 265.727 136.928C266.143 138.72 266.463 140.176 266.687 141.296C266.943 142.384 267.327 144.272 267.839 146.96C268.383 149.616 268.783 151.552 269.039 152.768C274.415 138.752 277.103 129.392 277.103 124.688C277.103 124.272 277.087 123.968 277.055 123.776C277.535 123.68 278.031 123.632 278.543 123.632C279.823 123.632 280.863 123.952 281.663 124.592C282.495 125.2 282.911 126.08 282.911 127.232C282.911 128.832 281.327 133.568 278.159 141.44C275.023 149.28 273.103 154.672 272.399 157.616ZM286.084 125.456C289.668 124.24 293.38 123.632 297.22 123.632C301.06 123.632 304.244 124.448 306.772 126.08C309.3 127.712 310.564 130.208 310.564 133.568C310.564 136.928 309.38 139.76 307.012 142.064C304.644 144.336 301.796 145.472 298.468 145.472C296.036 145.472 294.82 144.544 294.82 142.688C294.82 142.112 294.932 141.504 295.156 140.864C296.02 141.088 296.804 141.2 297.508 141.2C299.716 141.2 301.38 140.592 302.5 139.376C303.652 138.16 304.228 136.48 304.228 134.336C304.228 132.16 303.62 130.544 302.404 129.488C301.188 128.432 299.492 127.904 297.316 127.904C296.196 127.904 294.836 128.096 293.236 128.48C292.98 132.416 292.852 135.904 292.852 138.944C292.852 147.456 293.188 153.616 293.86 157.424C292.836 157.808 291.748 158 290.596 158C289.444 158 288.436 157.632 287.572 156.896C286.74 156.16 286.324 155.184 286.324 153.968C286.324 152.752 286.484 150.64 286.804 147.632C287.124 144.592 287.284 142.16 287.284 140.336C287.284 134.768 286.884 129.808 286.084 125.456Z" fill="#FEFEFE"/>
</svg>
