<svg width="24" height="24" viewBox="0 0 24 24" fill="none" xmlns="http://www.w3.org/2000/svg">
    <path fill="white" fill-opacity="0.54" fill-rule="evenodd" clip-rule="evenodd" d="M14.8151 2.47C14.735 2.47 14.655 2.45 14.585 2.41C12.665 1.42 11.005 1 9.01501 1C7.03503 1 5.15503 1.47 3.44495 2.41C3.20496 2.54 2.90503 2.45 2.76501 2.21C2.63501 1.97 2.72498 1.66 2.96497 1.53C4.82495 0.52 6.86499 0 9.01501 0C11.145 0 13.005 0.469999 15.045 1.52C15.295 1.65 15.385 1.95 15.255 2.19C15.165 2.37 14.995 2.47 14.8151 2.47ZM0.505005 7.72C0.405029 7.72 0.304932 7.69 0.214966 7.63C-0.0150146 7.47 -0.0650635 7.16 0.0949707 6.93C1.08496 5.53 2.34497 4.43 3.84497 3.66C6.98499 2.04 11.005 2.03 14.155 3.65C15.655 4.42 16.915 5.51 17.905 6.9C18.0649 7.12 18.015 7.44 17.785 7.6C17.5549 7.76 17.245 7.71 17.085 7.48C16.1849 6.22 15.045 5.23 13.6949 4.54C10.825 3.07 7.15503 3.07 4.29504 4.55C2.93494 5.25 1.79504 6.25 0.89502 7.51C0.814941 7.65 0.665039 7.72 0.505005 7.72ZM6.40503 19.64C6.495 19.74 6.625 19.79 6.755 19.79C6.88501 19.79 7.01501 19.74 7.125 19.64C7.31494 19.44 7.31494 19.13 7.125 18.93C6.35498 18.15 5.91492 17.66 5.27502 16.51C4.66492 15.43 4.34497 14.1 4.34497 12.66C4.34497 10.24 6.43494 8.27 9.005 8.27C11.575 8.27 13.6649 10.24 13.6649 12.66C13.6649 12.94 13.885 13.16 14.1649 13.16C14.4449 13.16 14.6649 12.94 14.6649 12.66C14.6649 9.69 12.125 7.27 9.005 7.27C5.88501 7.27 3.34497 9.69 3.34497 12.66C3.34497 14.27 3.70496 15.77 4.39502 17C5.06494 18.21 5.53491 18.77 6.40503 19.64ZM13.9249 17.94C12.735 17.94 11.6849 17.64 10.825 17.05C9.33496 16.04 8.44495 14.4 8.44495 12.66C8.44495 12.38 8.66492 12.16 8.94495 12.16C9.22498 12.16 9.44495 12.38 9.44495 12.66C9.44495 14.07 10.1649 15.4 11.3849 16.22C12.095 16.7 12.9249 16.93 13.9249 16.93C14.1649 16.93 14.5649 16.9 14.965 16.83C15.235 16.78 15.495 16.96 15.5449 17.24C15.595 17.51 15.4149 17.77 15.1349 17.82C14.5649 17.93 14.0649 17.94 13.9249 17.94ZM11.785 19.98C11.8251 19.99 11.875 20 11.915 20C12.125 20 12.3351 19.85 12.385 19.62C12.4551 19.36 12.3051 19.08 12.035 19.01C10.625 18.62 9.71497 18.1 8.76501 17.16C7.55505 15.96 6.89502 14.36 6.89502 12.65C6.89502 11.58 7.82507 10.71 8.97498 10.71C10.125 10.71 11.0551 11.58 11.0551 12.65C11.0551 14.27 12.4351 15.59 14.135 15.59C15.8351 15.59 17.215 14.27 17.215 12.65C17.215 8.33 13.515 4.82 8.96497 4.82C5.73499 4.82 2.78503 6.63 1.45508 9.42C1.005 10.37 0.775024 11.46 0.775024 12.66C0.775024 14.01 1.01501 15.31 1.505 16.62C1.59497 16.87 1.88501 17.01 2.14502 16.91C2.40503 16.82 2.53503 16.53 2.43506 16.27C1.83508 14.67 1.76501 13.44 1.76501 12.66C1.76501 11.62 1.96497 10.67 2.35498 9.86C3.52502 7.41 6.125 5.83 8.96497 5.83C12.965 5.83 16.215 8.89 16.215 12.66C16.215 13.73 15.285 14.6 14.135 14.6C12.985 14.6 12.0551 13.73 12.0551 12.66C12.0551 11.04 10.675 9.72 8.97498 9.72C7.27502 9.72 5.89502 11.04 5.89502 12.66C5.89502 14.64 6.66504 16.49 8.06506 17.88C9.15503 18.95 10.1951 19.54 11.785 19.98Z" />
</svg>
