<svg xmlns="http://www.w3.org/2000/svg" viewBox="0 0 1436 372">
  <path fill="#0099ff" fill-opacity="1" d="M0,160L34.3,133.3C68.6,107,137,53,206,58.7C274.3,64,343,128,411,144C480,160,549,128,617,133.3C685.7,139,754,181,823,213.3C891.4,245,960,267,1029,234.7C1097.1,203,1166,117,1234,117.3C1302.9,117,1371,203,1406,245.3L1440,288L1440,0L1405.7,0C1371.4,0,1303,0,1234,0C1165.7,0,1097,0,1029,0C960,0,891,0,823,0C754.3,0,686,0,617,0C548.6,0,480,0,411,0C342.9,0,274,0,206,0C137.1,0,69,0,34,0L0,0Z"></path>
</svg>