<svg xmlns="http://www.w3.org/2000/svg" viewBox="0 0 1440 320">
  <path fill="#0099ff" fill-opacity="1" d="M0,64L30,74.7C60,85,120,107,180,138.7C240,171,300,213,360,234.7C420,256,480,256,540,229.3C600,203,660,149,720,149.3C780,149,840,203,900,192C960,181,1020,107,1080,90.7C1140,75,1200,117,1260,122.7C1320,128,1380,96,1410,80L1440,64L1440,0L1410,0C1380,0,1320,0,1260,0C1200,0,1140,0,1080,0C1020,0,960,0,900,0C840,0,780,0,720,0C660,0,600,0,540,0C480,0,420,0,360,0C300,0,240,0,180,0C120,0,60,0,30,0L0,0Z"></path>
</svg>