<svg xmlns="http://www.w3.org/2000/svg" viewBox="0 0 1440 200">
  <path fill="#0099ff" fill-opacity="1" d="M0,64L30,74.7C60,85,120,107,180,138.7C240,171,300,213,360,234.7C420,256,480,256,540,229.3C600,203,660,149,720,149.3C780,149,840,203,900,192C960,181,1020,107,1080,90.7C1140,75,1200,117,1260,122.7C1320,128,1380,96,1410,80L1440,64L1440,320L1410,320C1380,320,1320,320,1260,320C1200,320,1140,320,1080,320C1020,320,960,320,900,320C840,320,780,320,720,320C660,320,600,320,540,320C480,320,420,320,360,320C300,320,240,320,180,320C120,320,60,320,30,320L0,320Z"></path>
</svg>


